# xmcd
#
# Track frame offsets:
#	300
#	21992
#	39340
#	62045
#	79875
#	97192
#	118288
#	140303
#	159685
#	190346
#	212765
#	231371
#	245320
#	260420
#	274125
#	289935
#	307698
#	327893
#
# Disc length: 4607 seconds
#
# Revision: 0
# Processed by: cddbd v1.5.2PL0 Copyright (c) Steve Scherf et al.
# Submitted via: audiograbber 1.83.01
#
DISCID=0c11fb12
DTITLE=BB King - B.B. King and Friends at 80
DYEAR=1900
DGENRE=
TTITLE0=Early In The Morning (With Van Morrison)
TTITLE1=Tired Of Your Jive (With Billy Gibbons)
TTITLE2=The Thrill Is Gone (With Eric Clapton]\n
TTITLE3=Need Your Love So Bad (With Sheryl Crow]\n
TTITLE4=Ain't Nobody Home (With Hall and Oates]\n
TTITLE5=Hummingbird (With John Mayer]\n
TTITLE6=All Over Again (With Mark Knopfler]\n
TTITLE7=Drivin'Wheel (With Glenn Frey]\n
TTITLE8=There Must Be A Better World Somewhere (With Gloria Estefan]\n
TTITLE9=Never Make Your Move Too Soon (With Roger Daltrey]\n
TTITLE10=Funny How Time Slips Away (With Bobby Bland]\n
TTITLE11=Rock This House (With Elton John]\n
TTITLE12=Exactly Like You\n
TTITLE13=I Need You\n
TTITLE14=(I Love You) For Sentimental Reasons\n
TTITLE15=Always On My Mind
TTITLE16=Cross My Heart
TTITLE17=What A Wonderful World
EXTD=
EXTT0=
EXTT1=
EXTT2=
EXTT3=
EXTT4=
EXTT5=
EXTT6=
EXTT7=
EXTT8=
EXTT9=
EXTT10=
EXTT11=
EXTT12=
EXTT13=
EXTT14=
EXTT15=
EXTT16=
EXTT17=
PLAYORDER=
